<svg xmlns="http://www.w3.org/2000/svg" xmlns:xlink="http://www.w3.org/1999/xlink" width="348.686" height="272.811" xmlns:v="https://vecta.io/nano"><defs><clipPath id="A"><path fill="none" d="M0 0h348.686v272.811H0z"/></clipPath><clipPath id="B"><path fill="none" d="M0 0h208.643v148.795H0z"/></clipPath><path id="C" d="M64.194 165.46h164.889a1.7 1.7 0 0 0 1.472-2.55 1.7 1.7 0 0 0-1.472-.85H64.194a1.7 1.7 0 0 0 0 3.4"/><path id="D" d="M228.681 194.138h-85.71a1.7 1.7 0 0 0-1.472 2.55 1.7 1.7 0 0 0 1.472.85h85.71a1.7 1.7 0 0 0 1.472-2.55 1.7 1.7 0 0 0-1.472-.85"/><path id="E" d="M228.681 202.825h-85.71a1.7 1.7 0 0 0-1.472 2.55 1.7 1.7 0 0 0 1.472.85h85.71a1.7 1.7 0 0 0 0-3.4"/><path id="F" d="M84.925 139.774h-2.746l.053 2.613-2.482-.9-.818 2.613 2.481.766-1.583 2.112 2.191 1.558 1.5-2.138 1.505 2.191 2.191-1.611-1.584-2.086 2.534-.766-.871-2.587-2.456.871z"/><path id="G" d="M56.752 211.865H15.14c-2.555 0-4.625-2.071-4.625-4.625s2.071-4.625 4.625-4.625h41.612c2.555 0 4.625 2.071 4.625 4.625s-2.071 4.625-4.625 4.625"/></defs><g clip-path="url(#A)"><g clip-path="url(#A)"><path d="M37.682 86.559a6.26 6.26 0 0 1 6.027-6.469h222.739a6.26 6.26 0 0 1 6.027 6.469v146.9a6.26 6.26 0 0 1-6.027 6.469H43.707a6.26 6.26 0 0 1-6.027-6.469z" fill="#0014a0"/><path fill="#0f58dc" d="M42.996 86.059h208.746v148.293H42.996z"/><path d="M261.631 167.745a7.54 7.54 0 0 1-5.334-12.871 7.54 7.54 0 0 1 12.872 5.331 7.55 7.55 0 0 1-7.538 7.54m0-12.824c-2.918.001-5.283 2.367-5.282 5.285s2.367 5.283 5.285 5.283 5.283-2.366 5.283-5.284-2.369-5.281-5.286-5.284" fill="#fff"/><path d="M43.099 234.716h208.643v-148.8H43.099zm185.579-11.12h-85.71a1.7 1.7 0 0 1-1.472-2.55 1.7 1.7 0 0 1 1.472-.85h85.71a1.7 1.7 0 0 1 0 3.4m0-8.686h-85.71a1.7 1.7 0 0 1-1.472-2.55 1.7 1.7 0 0 1 1.472-.85h85.71a1.7 1.7 0 0 1 0 3.4m0-8.686h-85.71a1.7 1.7 0 0 1 0-3.4h85.71a1.7 1.7 0 0 1 0 3.4m0-8.687h-85.71a1.7 1.7 0 0 1-1.472-2.55 1.7 1.7 0 0 1 1.472-.85h85.71a1.7 1.7 0 0 1 1.472 2.55 1.7 1.7 0 0 1-1.472.85M113.016 141.49l2.482.9-.053-2.614h2.747l-.08 2.64 2.456-.871.871 2.587-2.534.766 1.584 2.086-2.191 1.61-1.506-2.191-1.5 2.138-2.2-1.559 1.583-2.112-2.481-.766zm-3.617 5.492l-2.191 1.61-1.505-2.191-1.5 2.138-2.192-1.558 1.584-2.112-2.481-.766.818-2.614 2.482.9-.053-2.614h2.746l-.08 2.64 2.455-.871.871 2.587-2.534.766zm-11.007-5.439l.871 2.587-2.534.766 1.584 2.086-2.191 1.61-1.505-2.191-1.5 2.138-2.192-1.558 1.584-2.112-2.481-.766.818-2.614 2.482.9-.053-2.614h2.746l-.08 2.64zm-11.089 0l.871 2.587-2.534.766 1.583 2.086-2.191 1.61-1.506-2.191-1.5 2.138-2.191-1.558 1.583-2.112-2.481-.766.818-2.614 2.482.9-.052-2.614h2.745l-.079 2.64zm-18.639-.053l2.482.9-.054-2.616h2.746l-.08 2.64 2.456-.871.871 2.587-2.534.766 1.584 2.086-2.191 1.61-1.506-2.191-1.5 2.138-2.191-1.558 1.583-2.112-2.481-.766zm-4.472 20.572H229.08a1.7 1.7 0 1 1 0 3.4H64.192a1.7 1.7 0 1 1 0-3.4m0 8.686H229.08a1.7 1.7 0 1 1 0 3.4H64.192a1.7 1.7 0 1 1 0-3.4m0 8.686H229.08a1.7 1.7 0 0 1 0 3.4H64.192a1.7 1.7 0 1 1 0-3.4m-1.7 14.7h72.84v29.458h-72.84z" fill="#0f58dc"/><g fill="#fff"><use xlink:href="#C"/><path d="M64.194 174.146h164.889a1.7 1.7 0 1 0 0-3.4H64.194a1.7 1.7 0 0 0 0 3.4m0 8.686h164.889a1.7 1.7 0 1 0 0-3.4H64.194a1.7 1.7 0 1 0 0 3.4"/><use xlink:href="#D"/><use xlink:href="#E"/><path d="M228.681 211.511h-85.71a1.7 1.7 0 1 0 0 3.4h85.71a1.7 1.7 0 1 0 0-3.4m0 8.686h-85.71a1.7 1.7 0 1 0 0 3.4h85.71a1.7 1.7 0 0 0 0-3.4M62.495 194.138h72.84v29.458h-72.84zm6.247-47.156l2.192 1.558 1.5-2.138 1.505 2.191 2.191-1.611-1.579-2.09 2.534-.766-.871-2.587-2.455.871.079-2.64h-2.745l.052 2.613-2.482-.9-.818 2.613 2.481.766z"/><use xlink:href="#F"/><path d="M96.015 139.774h-2.746l.053 2.613-2.482-.9-.818 2.613 2.481.766-1.583 2.112 2.191 1.558 1.5-2.138 1.505 2.191 2.191-1.611-1.584-2.086 2.534-.766-.871-2.587-2.456.871zm13.463 1.769l-2.455.871.079-2.64h-2.745l.052 2.614-2.482-.9-.82 2.616 2.481.766-1.581 2.112 2.192 1.557 1.5-2.138 1.508 2.191 2.191-1.61-1.583-2.086 2.534-.766zm3.618 5.439l2.192 1.558 1.5-2.138 1.505 2.191 2.191-1.611-1.583-2.086 2.534-.766-.871-2.587-2.455.871.079-2.64h-2.742l.052 2.613-2.482-.9-.818 2.613 2.481.766z"/></g><g fill="#834e2b"><path d="M88.755 125.57a.26.26 0 0 1-.11-.025c-2.232-1.051-3.46-3.534-3.46-6.994l.068-4.843.067-4.833a.26.26 0 0 1 .258-.243.26.26 0 0 1 .258.243l-.068 4.843-.067 4.833c0 3.248 1.123 5.565 3.164 6.526.11.051.17.172.143.29s-.132.202-.253.202"/><path d="M104.128 102.575v25.973h-18.97v-25.973c0-4.049 3.282-7.331 7.331-7.331h4.3c4.049 0 7.331 3.282 7.331 7.331"/></g><g fill="#0b00a6"><path d="M108.601 136.005a13.96 13.96 0 0 0-20.94-12.09 13.96 13.96 0 0 0-6.98 12.09z"/><path d="M104.396 122.218c-2.951-2.271-9.587-3.292-9.587-3.292l-.066 3.463-.066-3.463s-6.634 1.021-9.587 3.292c-.703.548-1.066 1.425-.956 2.31s.675 1.647 1.49 2.007l8.964 3.989v.139l.158-.07.158.07v-.139l8.964-3.989c.815-.361 1.381-1.123 1.49-2.007s-.254-1.761-.957-2.31"/></g><path d="M99.447 110.964a1.63 1.63 0 0 1 3.26 0v2.347a1.63 1.63 0 0 1-2.445 1.412 1.63 1.63 0 0 1-.815-1.412" fill="#e4a77b"/><path d="M101.079 115.2a1.89 1.89 0 0 1-1.89-1.89.26.26 0 0 1 .393-.238.26.26 0 0 1 .124.238 1.37 1.37 0 0 0 2.068 1.219 1.37 1.37 0 0 0 .675-1.219v-2.347a1.37 1.37 0 0 0-1.371-1.335 1.37 1.37 0 0 0-1.371 1.335.26.26 0 0 1-.393.238.26.26 0 0 1-.124-.238 1.89 1.89 0 0 1 2.846-1.672 1.89 1.89 0 0 1 .931 1.672v2.346a1.89 1.89 0 0 1-1.888 1.891" fill="#c58963"/><path d="M90.034 110.964a1.63 1.63 0 0 0-3.26 0v2.347a1.63 1.63 0 0 0 2.445 1.412 1.63 1.63 0 0 0 .815-1.412" fill="#e4a77b"/><g fill="#c58963"><path d="M88.403 115.2a1.89 1.89 0 0 1-1.888-1.891v-2.346a1.89 1.89 0 0 1 2.846-1.672 1.89 1.89 0 0 1 .931 1.672.26.26 0 0 1-.393.238.26.26 0 0 1-.124-.238 1.37 1.37 0 0 0-1.371-1.335 1.37 1.37 0 0 0-1.371 1.335v2.347a1.37 1.37 0 0 0 1.371 1.335 1.37 1.37 0 0 0 1.371-1.335.26.26 0 0 1 .393-.238.26.26 0 0 1 .124.238 1.89 1.89 0 0 1-1.89 1.889"/><path d="M98.864 124.205l-4.121 1.563-4.13-1.563v-11.106h8.256z"/></g><path d="M100.593 115.541v-11.6-.224c-.271-3.068-2.841-5.422-5.921-5.422s-5.65 2.353-5.921 5.422v.282 11.546a2.06 2.06 0 0 0 .695 1.625c.078.073.161.139.249.2l3.528 2.24a3.02 3.02 0 0 0 .445.206 2.75 2.75 0 0 0 2.009 0c.154-.057.302-.125.445-.206a42.65 42.65 0 0 0 3.527-2.24c.088-.061.171-.128.249-.2a2.06 2.06 0 0 0 .7-1.625" fill="#e4a77b"/><path d="M94.636 115.117a.26.26 0 0 1-.259-.259v-4.63a.26.26 0 0 1 .393-.238.26.26 0 0 1 .124.238v4.626a.26.26 0 0 1-.259.259" fill="#c58963"/><path d="M100.504 109.116H88.779l-1.034-4.989 3.276-6.207 7.415-1.207 3.621 4.828z" fill="#834e2b"/><path d="M94.706 117.49c-1.708.121-3.288-.907-3.87-2.517a.26.26 0 0 1 .18-.32.26.26 0 0 1 .32.18 3.27 3.27 0 0 0 3.372 2.138.26.26 0 0 1 .259.259.26.26 0 0 1-.259.259" fill="#c58963"/><g fill="#fff"><path d="M92.035 134.98c-.086-.001-.155-.07-.156-.156v-5.381c0-.533-.289-1.023-.755-1.282-.075-.042-.102-.137-.061-.213s.137-.102.212-.061a1.78 1.78 0 0 1 .915 1.556v5.381c-.001.086-.07.155-.156.156m5.417 0c-.086-.001-.155-.07-.156-.156v-5.381a1.78 1.78 0 0 1 .915-1.556c.075-.042.171-.015.212.061s.015.171-.06.212c-.466.259-.755.749-.755 1.282v5.381c-.001.086-.07.155-.156.156"/></g><g opacity=".25"><g clip-path="url(#B)" transform="translate(43.099 85.695)"><path d="M208.643 148.798V122.52L82.66-.002H0v34.39l117.638 114.41z" fill="#fff"/></g></g><g fill="#fff"><path d="M201.647 142.815a15.03 15.03 0 0 0 4.013 4 15.28 15.28 0 0 0 6.362-9.472 12.07 12.07 0 0 0 .278-2.232v-.006a15.56 15.56 0 0 1-10.653 7.71m8.963-9.088c-.674-.272-1.368-.493-2.076-.66-.885-.21-1.79-.322-2.7-.332h-.009-.17-.168-.011a12.29 12.29 0 0 0-2.695.332c-1.311.31-2.574.794-3.756 1.44l-.01.184-.014.011.014.409a12.16 12.16 0 0 0 .279 2.233c.245 1.208.644 2.379 1.186 3.486 4.326-.587 8.099-3.233 10.125-7.1"/><path d="M313.78 55.38a29.28 29.28 0 0 0 .19-3.286 28.93 28.93 0 0 0-44.713-24.25C263.869 11.495 248.737.335 231.525.018s-32.745 10.276-38.732 26.415a28.94 28.94 0 0 0-42.152 28.657c-21.835 1.415-38.597 19.917-37.857 41.785s18.716 39.194 40.596 39.13h154.8c21.282 0 38.935-16.469 40.409-37.7S334.858 58.322 313.78 55.38z"/></g><path d="M211.457 87.759h-38.738v39.581c0 16.617 20.075 39.923 33.677 42.676l.008.273c.839-.097 1.687-.097 2.526 0l.008-.273c13.6-2.753 33.677-26.059 33.677-42.676V87.759z" fill="#0014a0"/><path fill="#fff" d="M192.088 121.452h31.159v31.159h-31.159z"/><path d="M215.669 130.29a8 8 0 1 1-16 0v-21.054a8 8 0 1 1 16 0z" fill="none" stroke="#fff" stroke-miterlimit="10" stroke-width="4.344"/><path d="M211.878 134.505a4.21 4.21 0 0 0-8.218-1.316 4.21 4.21 0 0 0 2.112 5.056v7.2h3.79v-7.2a4.2 4.2 0 0 0 2.316-3.74" fill="#0014a0"/><path d="M78.251 256.302a5.29 5.29 0 0 1-5.284 5.286H36.489a5.28 5.28 0 0 1-5.28-5.286v-74.527a5.28 5.28 0 0 1 5.28-5.28h36.478c2.916.001 5.281 2.364 5.284 5.28z" fill="#dfdfdf"/><path d="M63.684 256.302c.001 1.401-.555 2.745-1.545 3.737s-2.334 1.549-3.735 1.549H21.925a5.28 5.28 0 0 1-5.28-5.286v-74.527a5.28 5.28 0 0 1 5.28-5.28h36.479c2.916.001 5.279 2.364 5.28 5.28z" fill="#fff"/><g fill="#0014a0"><path d="M9.562 187.718h85.843c2.536 0 4.969 1.008 6.762 2.801s2.801 4.226 2.801 6.762v65.966c0 2.536-1.008 4.969-2.801 6.762s-4.226 2.801-6.762 2.801H9.562c-5.281 0-9.562-4.281-9.562-9.562V197.28a9.56 9.56 0 0 1 9.562-9.562z"/><path d="M47.042 256.302c.001 2.917-2.363 5.283-5.28 5.286H5.284c-1.402 0-2.746-.557-3.737-1.548S-.001 257.704 0 256.302v-74.527c.002-2.917 2.367-5.281 5.284-5.28h36.478c2.915.002 5.278 2.365 5.28 5.28z"/></g><g fill="#fff"><use xlink:href="#G"/><path d="M56.752 225.734H15.14c-2.555 0-4.625-2.071-4.625-4.625s2.071-4.625 4.625-4.625h41.612c2.555 0 4.625 2.071 4.625 4.625s-2.071 4.625-4.625 4.625m0 13.871H15.14a4.63 4.63 0 0 1-4.559-4.627 4.63 4.63 0 0 1 4.559-4.627h41.612a4.63 4.63 0 0 1 4.559 4.626 4.63 4.63 0 0 1-4.559 4.627m232.936-.136c0 18.415-14.928 33.343-33.343 33.343s-33.343-14.928-33.343-33.343 14.928-33.343 33.343-33.343c8.843 0 17.324 3.513 23.577 9.766s9.766 14.734 9.766 23.577"/></g><path d="M269.74 226.072a10.49 10.49 0 0 0-17.282 10.973l-12.239 12.239a1.16 1.16 0 0 0-.342.824v4.661c0 .309.123.605.341.824s.515.341.824.341h4.662c.309 0 .605-.123.824-.341s.341-.515.341-.824v-2.13H249c.643-.001 1.164-.522 1.165-1.165v-2.132h2.13c.309 0 .606-.122.824-.341s.342-.515.342-.824v-1.93h1.93a1.16 1.16 0 0 0 .824-.342l2.552-2.55a10.49 10.49 0 0 0 10.973-17.283m-1.84 5.845a3.4 3.4 0 0 1-6.643 0 3.44 3.44 0 0 1 0-1.367 3.35 3.35 0 0 1 .308-.839c.764-1.515 2.532-2.23 4.134-1.672s2.544 2.216 2.202 3.878" fill="#0014a0"/></g></g></svg>